<?xml version="1.0" standalone="no"?><!DOCTYPE svg PUBLIC "-//W3C//DTD SVG 1.1//EN" "http://www.w3.org/Graphics/SVG/1.1/DTD/svg11.dtd"><svg t="1754642303902" class="icon" viewBox="0 0 1024 1024" version="1.1" xmlns="http://www.w3.org/2000/svg" p-id="6565" xmlns:xlink="http://www.w3.org/1999/xlink" width="200" height="200"><path d="M209.787514 1024a73.316144 73.316144 0 0 1-43.660441-14.508846c-19.455401-14.343436-30.608781-36.532045-30.608781-60.878865v-89.65238c0-23.724562-8.089351-46.401526-22.779361-63.856251C40.037168 708.712224 0 600.021907 0 489.070982 0 219.397065 229.676133 0 511.984247 0s511.984247 219.397065 511.984246 489.070982-229.676133 489.070982-511.984246 489.070983c-20.345466 0-43.266607-1.323282-65.431587-2.615058-23.716686-1.370542-56.19224-3.245192-64.533645-1.394173l-150.247685 46.5118a74.379496 74.379496 0 0 1-21.983816 3.355466zM511.984247 63.013446C264.420172 63.013446 63.013446 254.141103 63.013446 489.070982c0 97.521184 33.869727 189.323898 97.938648 265.467771 24.236547 28.797145 37.579644 65.880558 37.579643 104.429033v89.65238c0 5.639703 3.127042 8.782499 4.985939 10.160918 2.024307 1.488693 5.34039 3.001015 9.625304 1.669856l150.743916-46.645703c16.052675-4.962309 41.935448-3.7493 86.312667-1.181502 21.267038 1.236639 43.258731 2.504784 61.784684 2.504784 247.564075 0 448.970801-191.127658 448.970801-426.057537S759.548322 63.013446 511.984247 63.013446z" p-id="6566"></path></svg>