<?xml version="1.0" standalone="no"?><!DOCTYPE svg PUBLIC "-//W3C//DTD SVG 1.1//EN" "http://www.w3.org/Graphics/SVG/1.1/DTD/svg11.dtd"><svg t="1754925568245" class="icon" viewBox="0 0 1024 1024" version="1.1" xmlns="http://www.w3.org/2000/svg" p-id="11466" xmlns:xlink="http://www.w3.org/1999/xlink" width="200" height="200"><path d="M638.088533 119.466667c164.864 0 298.666667 129.6384 298.666667 289.553066a277.230933 277.230933 0 0 1-31.573333 127.6928l44.407466 66.013867c7.2704 10.581333 8.157867 24.132267 2.286934 35.498667a36.522667 36.522667 0 0 1-30.685867 19.524266 36.7616 36.7616 0 0 1-32.597333-16.2816l-70.212267-104.379733-62.5664-92.945067-103.765333 129.160534c-15.701333 19.5584-46.6944 17.749333-59.904-3.4816l-187.733334-302.216534-0.375466-0.682666-26.385067-42.461867-241.2544 404.992c-6.485333 11.0592-18.5344 17.885867-31.6416 17.92-13.073067 0-25.1904-6.792533-31.675733-17.8176a34.577067 34.577067 0 0 1 0.238933-35.601067l272.145067-456.8064c13.892267-23.313067 48.4352-23.620267 62.737066-0.580266l34.167467 55.022933A300.168533 300.168533 0 0 1 638.088533 119.466667zM477.866667 253.201067l147.797333 247.569066 103.560533-134.144a36.5568 36.5568 0 0 1 59.8016 2.56l67.9936 105.130667c5.12-18.773333 7.68-38.229333 7.68-57.719467 0-126.907733-102.058667-229.853867-228.010666-229.853866-60.3136 0-116.565333 24.302933-158.8224 66.4576z m-282.897067 516.778666c-12.765867 0-24.541867-6.4512-30.890667-16.861866a32.017067 32.017067 0 0 1 0-33.621334c6.3488-10.410667 18.1248-16.827733 30.890667-16.827733h565.794133c19.729067 0 35.669333 15.0528 35.669334 33.621333 0 18.602667-15.940267 33.655467-35.669334 33.655467H194.9696zM628.5312 904.533333c-20.3776 0-36.864-15.0528-36.864-33.655466 0-18.568533 16.4864-33.621333 36.864-33.621334h267.5712c20.3776 0 36.864 15.018667 36.864 33.621334 0 18.602667-16.4864 33.655467-36.864 33.655466h-267.605333z m-205.482667 0c-20.002133 0-36.181333-15.0528-36.181333-33.655466 0-18.568533 16.1792-33.621333 36.181333-33.621334h64.170667c19.968 0 36.181333 15.018667 36.181333 33.621334 0 18.602667-16.213333 33.655467-36.181333 33.655466h-64.170667z" p-id="11467"></path></svg>