<?xml version="1.0" standalone="no"?><!DOCTYPE svg PUBLIC "-//W3C//DTD SVG 1.1//EN" "http://www.w3.org/Graphics/SVG/1.1/DTD/svg11.dtd"><svg t="1754925378831" class="icon" viewBox="0 0 1024 1024" version="1.1" xmlns="http://www.w3.org/2000/svg" p-id="8106" xmlns:xlink="http://www.w3.org/1999/xlink" width="200" height="200"><path d="M484.94592 651.264a81.16224 81.16224 0 0 0-32.0512 78.86848l11.32544 67.66592a83.1488 83.1488 0 0 1-23.40864 72.37632l-24.82176 24.82176a20.992 20.992 0 0 1-3.13344 2.58048 20.31616 20.31616 0 0 1-28.3648-5.4272l-65.29024-132.13696a121.7536 121.7536 0 0 0-55.21408-55.1936l-132.13696-65.3312a20.31616 20.31616 0 0 1-5.4272-28.32384 20.2752 20.2752 0 0 1 2.60096-3.15392l24.80128-24.82176a83.1488 83.1488 0 0 1 72.37632-23.40864l67.66592 11.34592A81.16224 81.16224 0 0 0 372.736 539.0336l53.88288-73.46176a20.2752 20.2752 0 0 0-6.36928-29.67552l-272.85504-154.4192a20.2752 20.2752 0 0 1-7.3728-27.8528 19.90656 19.90656 0 0 1 3.31776-4.32128l35.1232-35.1232a82.78016 82.78016 0 0 1 78.4384-22.03648l300.7488 75.01824a81.16224 81.16224 0 0 0 77.04576-21.36064l81.65376-81.65376a121.7536 121.7536 0 0 1 75.07968-35.16416l65.4336-5.9392a40.59136 40.59136 0 0 1 44.09344 44.07296l-5.9392 65.4336a121.7536 121.7536 0 0 1-35.16416 75.07968l-81.67424 81.67424a81.16224 81.16224 0 0 0-21.36064 77.02528l75.01824 300.76928a82.78016 82.78016 0 0 1-22.016 78.4384L774.67648 880.64a20.95104 20.95104 0 0 1-4.34176 3.33824 20.2752 20.2752 0 0 1-27.8528-7.3728l-154.4192-272.87552a20.2752 20.2752 0 0 0-29.63456-6.3488l-73.48224 53.8624z" p-id="8107"></path></svg>