<?xml version="1.0" standalone="no"?><!DOCTYPE svg PUBLIC "-//W3C//DTD SVG 1.1//EN" "http://www.w3.org/Graphics/SVG/1.1/DTD/svg11.dtd"><svg t="1754708660449" class="icon" viewBox="0 0 1024 1024" version="1.1" xmlns="http://www.w3.org/2000/svg" p-id="14224" xmlns:xlink="http://www.w3.org/1999/xlink" width="200" height="200"><path d="M804.586 661.988c16.671-25.313 100.454-143.493 140.5-205.06 11.087-17.074 14.174-37.16 8.453-55.104l0.004 0.014 0.002-0.007c-4.201-13.267-15.168-31.35-43.503-42.262-67.563-26.07-182.18-67.884-210.155-78.066-18.007-24.226-92.163-123.826-136.915-181.56-12.539-16.213-32.21-25.937-52.597-26.029h-0.281c-19.434 0-37.609 8.9-49.848 24.47-45.313 57.63-121.76 158.772-140.082 183.042-27.724 10.016-141.252 51.203-209.37 77.344-21.387 8.22-36.65 23.473-42.913 42.968-6.398 19.735-2.935 42.202 9.485 61.624 39.58 62.08 122.194 154.863 139.15 179.654 0.52 30.328-2.899 172.485 0 246.61 0.999 26.36 0.962 34.255 16.716 45.93 7.516 5.553 19.112 10.968 35.844 10.968 7.716 0 16.515-1.132 26.486-3.987 70.075-19.672 185.425-54.816 214.013-63.552 28.64 9.04 144.703 45.454 213.92 64.99 11.799 3.28 24.21-3.714 27.506-15.77 3.31-12.066-3.655-43.527-15.538-46.898-78.346-22.122-217.757-66.18-219.148-66.61-4.308-1.398-8.86-1.361-13.124-0.087-1.392 0.442-140.012 42.924-219.551 65.305-1.94 0.54-3.22 0.985-4.05 1.336 0.2 1.313-3.113 1.317 0 0-0.052-0.342-0.339-0.77-1.047-1.29-4.002-2.972-6.553-11.15-7.005-22.474-3.247-84.135-5.686-231.962-5.698-233.445-0.085-4.504-1.485-8.92-4.003-12.594-0.826-1.172-83.174-102.462-128.006-172.745-5.003-7.87-6.678-16.213-4.527-22.855 2.567-7.934 10.276-12.37 16.303-14.688 77.188-29.635 213.385-59.814 214.772-60.32a22.495 22.495 0 0 0 10.25-7.591c0.91-1.219 73.39-122.52 124.572-187.633 4.846-6.163 11.214-7.476 15-7.404 6.78 0.006 13.558 3.34 17.664 8.696 50.66 65.383 139.51 185.038 140.368 186.238a22.4 22.4 0 0 0 10.314 7.69c1.392 0.524 120.102 31.533 196.668 61.106 6.51 2.493 14.693 6.903 16.861 13.821 1.506 4.697 0.262 10.748-3.282 16.215-45.553 70.06-122.123 173.098-122.146 173.098-2.35 3.584-18.856 33.66-18.97 37.939v151.76c-0.303 12.546 13.146 37.221 37.939 37.94 23.536-0.33 18.66-25.434 18.97-37.94V661.988z" p-id="14225"></path></svg>