<?xml version="1.0" standalone="no"?><!DOCTYPE svg PUBLIC "-//W3C//DTD SVG 1.1//EN" "http://www.w3.org/Graphics/SVG/1.1/DTD/svg11.dtd"><svg t="1754925649199" class="icon" viewBox="0 0 1024 1024" version="1.1" xmlns="http://www.w3.org/2000/svg" p-id="16026" xmlns:xlink="http://www.w3.org/1999/xlink" width="200" height="200"><path d="M512 0C230.4 0 0 230.4 0 512s230.4 512 512 512 512-230.4 512-512S793.6 0 512 0z m322.133333 825.6c-61.866667-32-40.533333-4.266667-125.866666-40.533333-36.266667-12.8-74.666667-32-106.666667-49.066667v-81.066667c27.733333-27.733333 44.8-61.866667 44.8-102.4 17.066667 4.266667 27.733333-25.6 27.733333-44.8s8.533333-76.8-12.8-74.666666c8.533333-32 8.533333-57.6 8.533334-89.6-4.266667-61.866667-49.066667-130.133333-164.266667-134.4-81.066667 0-147.2 57.6-164.266667 134.4 0 32 4.266667 57.6 12.8 89.6-25.6-4.266667-12.8 44.8-12.8 70.4 0 21.333333 4.266667 49.066667 27.733334 44.8 4.266667 40.533333 17.066667 76.8 44.8 102.4v81.066666c-36.266667 17.066667-74.666667 36.266667-106.666667 49.066667-85.333333 36.266667-61.866667 8.533333-123.733333 40.533333C108.8 738.133333 64 633.6 64 514.133333 59.733333 264.533333 260.266667 64 509.866667 64S960 264.533333 960 514.133333c0 121.6-49.066667 228.266667-125.866667 311.466667z" p-id="16027"></path></svg>