<?xml version="1.0" standalone="no"?><!DOCTYPE svg PUBLIC "-//W3C//DTD SVG 1.1//EN" "http://www.w3.org/Graphics/SVG/1.1/DTD/svg11.dtd"><svg t="1754925493865" class="icon" viewBox="0 0 1151 1024" version="1.1" xmlns="http://www.w3.org/2000/svg" p-id="9075" xmlns:xlink="http://www.w3.org/1999/xlink" width="224.8046875" height="200"><path d="M0 120.102621C0 15.5126 125.185502-38.681721 201.577685 32.30946l383.957496 356.358631 22.397521-20.59548c-25.197851-79.991145-11.999952-156.383328 52.192622-220.575902 41.795053-41.795053 159.383316-123.588239 174.183598-133.78615 55.996361-39.394039 133.386834 12.798583 141.183731 74.79492 40.597106 5.001686 82.192501 43.791632 87.793161 87.992819 60.194296 7.597239 114.987591 84.18908 74.789801 141.183731-10.197911 14.800282-91.786319 132.383425-133.586492 174.183598-66.39393 66.189153-142.985771 76.387064-220.575902 52.192623l-14.400966 15.399255 216.178309 200.579396c49.59707 46.192646 51.393991 124.586528 3.199646 172.780873l-55.996361 55.996361c-48.593661 48.593661-126.588227 45.992989-172.381558-2.80033-1.796921-1.802041 11.999952 14.400966-180.57777-212.574228l-186.17843 210.178333c-45.394015 51.393991-125.38516 54.393979-174.582913 5.201345L163.176816 932.822893c-48.793319-48.59878-46.392304-128.784464 5.201345-174.582913l208.775608-185.180141C139.581348 551.660608-0.005119 405.879626-0.005119 120.107741z m759.314344 354.356933c65.390521 37.192683 140.784415 31.197826 199.980422-27.598865 39.194381-39.394039 126.588227-165.782608 126.588227-165.782608 10.996543-15.199597-24.598877-50.395701-39.394039-38.795065l-161.779211 161.784331c-16.602322 13.996531-52.796715-21.998205-39.598817-38.994724l152.784367-172.181899c10.802004-14.99994-24.194442-49.796728-38.994723-38.994723l-172.1819 152.784366c-16.996518 13.397557-52.796715-22.996494-38.795065-39.394039l161.983988-161.779211c11.400978-14.800282-23.595468-50.395701-38.795065-39.394039 0 0-126.588227 87.388726-165.58295 126.588227-58.591914 58.591914-65.390521 133.985808-27.793403 199.980422l-44.994699 39.798474 89.78974 83.390449z m-321.961159 130.98582l-226.575878 200.579396c-23.999903 21.399231-25.197851 58.796691-2.401014 81.593527l55.996361 55.996362c22.996494 22.996494 60.194296 21.598889 81.593528-2.401015l192.178405-217.176598zM63.992916 120.102621c0 234.372775 97.991072 391.95917 377.95752 391.959171l365.158937 430.354919c21.598889 22.996494 57.99294 23.595468 80.390461 1.197948l55.996361-55.996362c22.597178-22.397521 21.798547-58.99123-1.397605-80.590118L158.185369 79.1062c-35.994735-33.394063-94.187333-7.802016-94.187334 40.996421z" p-id="9076"></path></svg>